<?xml version="1.0" encoding="utf-8" ?><svg xmlns="http://www.w3.org/2000/svg" xmlns:xlink="http://www.w3.org/1999/xlink" width="512" height="512" viewBox="0 0 512 512"><clipPath id="cl_3"><rect x="2.2888184e-05" y="-7.6293945e-06" width="512.00006" height="512"/></clipPath><g clip-path="url(#cl_3)"><path fill="#EFEFEE" transform="matrix(1.40659 0 0 1.41436 -104.088 -103.249)" d="M112.41 76.1077C118.757 75.6697 127.715 76 134.18 76.1339C140.329 76.2075 146.479 76.2313 152.629 76.2053L249.031 76.4746L357.229 76.1893L389.28 76.1726C413.007 76.1614 434.954 73.7104 435.714 104.56C435.907 112.418 435.998 120.333 435.994 128.236L435.996 163.684L436.008 276.127L436.018 362.336L436.034 389.246C436.047 399.853 437.316 412.917 429.604 421.365C422.193 429.484 410.214 430.419 399.911 430.991C328.614 431.32 257.316 431.247 186.02 430.769L132.185 430.484C122.136 430.497 112.681 431.547 102.628 430.312C96.4186 429.554 90.5793 426.952 85.8636 422.843C80.4886 418.131 77.1126 411.761 76.7809 404.626C76.378 395.961 76.4607 387.447 76.4807 378.785L76.5975 339.049L76.9613 218.262L77.0111 137.961C77.0041 105.497 69.0384 78.3692 112.41 76.1077Z"/><path fill="#CBCFF5" transform="matrix(1.40659 0 0 1.41436 -104.088 -103.249)" d="M107.308 182.299C109.32 179.67 114.886 175.11 117.595 172.907C131.62 161.504 147.79 150.423 165.979 147.445C187.404 143.938 206.53 153.249 223.81 164.804C225.868 166.195 227.904 167.619 229.917 169.073C230.548 169.537 230.684 169.909 231.418 170.362C234.757 171.849 240.869 176.155 244.284 178.433C248.469 181.226 253.8 184.188 257.798 186.973C256.236 188.309 256.814 188.194 256.427 189.84C255.507 193.744 257.394 216.327 256.351 218.345C256.07 222.767 256.254 227.051 256.309 231.462C256.325 232.725 256.501 236.578 256.32 237.527C269.58 246.184 278.131 251.438 294.042 253.795C289.442 256.461 284.169 257.843 279.722 260.191C271.586 264.487 265.212 268.875 256.511 272.309L255.889 289.413L256.321 289.978C256.537 297.853 256.292 305.355 256.202 313.212C256.17 316.026 255.935 321.706 256.204 324.24C256.226 329.03 256.509 339.672 256.043 344.053C251.754 341.846 245.383 337.312 241.134 334.589C225.195 324.375 209.864 312.059 191.472 306.571C186.381 305.051 182.526 304.492 177.388 303.799C174.145 303.65 168.939 304.121 165.654 304.496C141.277 307.277 125.709 321.965 107.306 336.137C107.69 330.789 107.422 322.824 107.421 317.247C107.42 307.564 107.557 297.441 107.273 287.789C107.052 272.745 107.271 257.054 107.269 241.964L107.308 182.299Z"/><path fill="#489CF1" transform="matrix(1.40659 0 0 1.41436 -104.088 -103.249)" d="M231.996 221.298C235.724 220.956 239.6 221.086 243.499 220.738C248.537 220.288 251.67 219.242 256.351 218.345C256.07 222.767 256.254 227.051 256.309 231.462C256.325 232.725 256.501 236.578 256.32 237.527C269.58 246.184 278.131 251.438 294.042 253.795C289.442 256.461 284.169 257.843 279.722 260.191C271.586 264.487 265.212 268.875 256.511 272.309L255.889 289.413L256.321 289.978C256.537 297.853 256.292 305.355 256.202 313.212C256.17 316.026 255.935 321.706 256.204 324.24C256.226 329.03 256.509 339.672 256.043 344.053C251.754 341.846 245.383 337.312 241.134 334.589C225.195 324.375 209.864 312.059 191.472 306.571C186.381 305.051 182.526 304.492 177.388 303.799C174.145 303.65 168.939 304.121 165.654 304.496C141.277 307.277 125.709 321.965 107.306 336.137C107.69 330.789 107.422 322.824 107.421 317.247C107.42 307.564 107.557 297.441 107.273 287.789C107.622 287.421 109.151 286.484 109.705 286.078C112.08 284.34 114.422 282.56 116.732 280.738C130.914 269.325 140.605 259.152 159.704 255.153C163.211 253.746 175.702 254.609 178.209 252.726C191.688 242.597 204.856 231.211 220.67 224.632C223.78 223.339 227.611 222.373 230.339 221.033L230.767 220.818L231.996 221.298Z"/><path fill="#2F52BC" transform="matrix(1.40659 0 0 1.41436 -104.088 -103.249)" d="M177.388 303.799C178.367 302.675 181.946 299.76 183.364 298.676C195.102 289.707 209.556 281.395 224.018 277.986C225.96 277.528 232.106 276.658 233.741 277.24C240.128 279.514 250.326 285.812 255.889 289.413L256.321 289.978C256.537 297.853 256.292 305.355 256.202 313.212C256.17 316.026 255.935 321.706 256.204 324.24C256.226 329.03 256.509 339.672 256.043 344.053C251.754 341.846 245.383 337.312 241.134 334.589C225.195 324.375 209.864 312.059 191.472 306.571C186.381 305.051 182.526 304.492 177.388 303.799Z"/><path fill="#1B3DA8" transform="matrix(1.40659 0 0 1.41436 -104.088 -103.249)" d="M231.996 221.298C235.724 220.956 239.6 221.086 243.499 220.738C248.537 220.288 251.67 219.242 256.351 218.345C256.07 222.767 256.254 227.051 256.309 231.462C256.325 232.725 256.501 236.578 256.32 237.527C255.101 236.886 253.907 236.095 252.735 235.365C245.641 230.948 238.915 225.952 231.996 221.298Z"/><path fill="#2F52BC" transform="matrix(1.40659 0 0 1.41436 -104.088 -103.249)" d="M175.082 198.791C194.354 184.229 206.124 172.517 231.418 170.362C234.757 171.849 240.869 176.155 244.284 178.433C248.469 181.226 253.8 184.188 257.798 186.973C256.236 188.309 256.814 188.194 256.427 189.84C255.507 193.744 257.394 216.327 256.351 218.345C251.67 219.242 248.537 220.288 243.499 220.738C239.6 221.086 235.724 220.956 231.996 221.298L230.767 220.818C227.217 218.421 223.839 215.855 220.209 213.511C206.533 204.68 191.641 198.542 175.082 198.791Z"/><path fill="#102C9A" transform="matrix(1.40659 0 0 1.41436 -104.088 -103.249)" d="M256.321 289.978C263.493 293.953 269.341 297.021 277 300.076C282.343 302.206 288.3 303.66 293.358 305.637C297.223 305.987 301.111 306.008 304.979 305.701C306.199 306.811 313.763 308.743 316.265 309.995C325.952 314.841 334.837 320.694 344.102 326.268C347.702 328.434 354.753 329.631 356.465 333.031C337.92 346.948 317.939 362.881 293.125 359.128C283.221 357.631 274.694 353.856 265.894 349.294C263.211 347.903 258.614 345.172 256.043 344.053C256.509 339.672 256.226 329.03 256.204 324.24C255.935 321.706 256.17 316.026 256.202 313.212C256.292 305.355 256.537 297.853 256.321 289.978Z"/><path fill="#1B3DA8" transform="matrix(1.40659 0 0 1.41436 -104.088 -103.249)" d="M256.321 289.978C263.493 293.953 269.341 297.021 277 300.076C282.343 302.206 288.3 303.66 293.358 305.637C292.33 306.957 283.876 309.629 281.47 310.833C272.942 315.101 265.231 321.081 256.204 324.24C255.935 321.706 256.17 316.026 256.202 313.212C256.292 305.355 256.537 297.853 256.321 289.978Z"/><path fill="#102C9A" transform="matrix(1.40659 0 0 1.41436 -104.088 -103.249)" d="M257.798 186.973C273.53 196.378 285.456 203.072 304.553 201.662C305.901 201.784 306.827 202.771 308.501 203.133C309.968 203.451 311.876 204.179 313.318 204.689C315.529 205.452 317.696 206.338 319.808 207.343C331.469 212.92 341.677 221.311 353.735 225.844C354.765 226.231 356.083 226.462 357.035 226.93C341.755 238.339 325.898 251.345 306.491 253.791C300.904 254.625 299.559 254.732 294.042 253.795C278.131 251.438 269.58 246.184 256.32 237.527C256.501 236.578 256.325 232.725 256.309 231.462C256.254 227.051 256.07 222.767 256.351 218.345C257.394 216.327 255.507 193.744 256.427 189.84C256.814 188.194 256.236 188.309 257.798 186.973Z"/><path fill="#1B3DA8" transform="matrix(1.40659 0 0 1.41436 -104.088 -103.249)" d="M357.757 278.5C362.139 275.926 366.688 272.047 370.831 269.248C379.279 263.541 395.686 253.684 405.731 252.281L405.762 303.777C391.317 308.038 377.541 316.339 365.527 325.31C362.415 327.634 359.447 330.826 356.465 333.031C354.753 329.631 347.702 328.434 344.102 326.268C334.837 320.694 325.952 314.841 316.265 309.995C313.763 308.743 306.199 306.811 304.979 305.701C325.29 302.366 341.944 291.126 357.757 278.5Z"/><path fill="#1B3DA8" transform="matrix(1.40659 0 0 1.41436 -104.088 -103.249)" d="M304.553 201.662C330.856 198.774 357.852 172.534 379.66 159.486C389.07 153.856 395.373 151.11 405.772 147.633C405.413 164.568 405.798 182.458 405.721 199.508C387.111 207.112 373.416 215.184 357.035 226.93C356.083 226.462 354.765 226.231 353.735 225.844C341.677 221.311 331.469 212.92 319.808 207.343C317.696 206.338 315.529 205.452 313.318 204.689C311.876 204.179 309.968 203.451 308.501 203.133C306.827 202.771 305.901 201.784 304.553 201.662Z"/><path fill="#489CF1" transform="matrix(1.40659 0 0 1.41436 -104.088 -103.249)" d="M405.721 199.508C405.945 216.71 405.909 235.065 405.731 252.281C395.686 253.684 379.279 263.541 370.831 269.248C366.688 272.047 362.139 275.926 357.757 278.5C355.949 277.449 353.501 276.737 351.524 275.944C338.373 270.668 327.711 260.357 313.891 256.582C311.649 255.97 308.34 255.177 306.491 253.791C325.898 251.345 341.755 238.339 357.035 226.93C373.416 215.184 387.111 207.112 405.721 199.508Z"/><path fill="#0777F3" transform="matrix(1.40659 0 0 1.41436 -104.088 -103.249)" d="M294.042 253.795C299.559 254.732 300.904 254.625 306.491 253.791C308.34 255.177 311.649 255.97 313.891 256.582C327.711 260.357 338.373 270.668 351.524 275.944C353.501 276.737 355.949 277.449 357.757 278.5C341.944 291.126 325.29 302.366 304.979 305.701C301.111 306.008 297.223 305.987 293.358 305.637C288.3 303.66 282.343 302.206 277 300.076C269.341 297.021 263.493 293.953 256.321 289.978L255.889 289.413L256.511 272.309C265.212 268.875 271.586 264.487 279.722 260.191C284.169 257.843 289.442 256.461 294.042 253.795Z"/></g></svg>